<svg width="273" height="712" viewBox="0 0 273 712" fill="none" xmlns="http://www.w3.org/2000/svg">
<path opacity="0.5" d="M138.968 179.983L139.142 248.489L181.856 263.766L181.913 286.003L18.2394 223.975L18.1917 205.108L181.548 142.141L181.604 164.265L138.968 179.983ZM121.381 242.02L121.24 186.429L44.8317 214.475L121.381 242.02ZM35.4726 22.1197L35.6057 74.6781L181.377 74.3091L181.431 95.7592L35.66 96.1282L35.7928 148.574L18.0487 148.619L17.7285 22.1646L35.4726 22.1197Z" fill="#7E36DA" fill-opacity="0.3"/>
<g clip-path="url(#clip0_7_9)">
<circle cx="7.5" cy="525.5" r="1.5" fill="#D2D6DB"/>
<circle cx="16.5" cy="525.5" r="1.5" fill="#D2D6DB"/>
<circle cx="25.5" cy="525.5" r="1.5" fill="#D2D6DB"/>
<circle cx="34.5" cy="525.5" r="1.5" fill="#D2D6DB"/>
<circle cx="43.5" cy="525.5" r="1.5" fill="#D2D6DB"/>
<circle cx="52.5" cy="525.5" r="1.5" fill="#D2D6DB"/>
<circle cx="61.5" cy="525.5" r="1.5" fill="#D2D6DB"/>
<circle cx="70.5" cy="525.5" r="1.5" fill="#D2D6DB"/>
<circle cx="79.5" cy="525.5" r="1.5" fill="#D2D6DB"/>
<circle cx="88.5" cy="525.5" r="1.5" fill="#D2D6DB"/>
<circle cx="97.5" cy="525.5" r="1.5" fill="#D2D6DB"/>
<circle cx="106.5" cy="525.5" r="1.5" fill="#D2D6DB"/>
<circle cx="115.5" cy="525.5" r="1.5" fill="#D2D6DB"/>
<circle cx="124.5" cy="525.5" r="1.5" fill="#D2D6DB"/>
<circle cx="133.5" cy="525.5" r="1.5" fill="#D2D6DB"/>
<circle cx="142.5" cy="525.5" r="1.5" fill="#D2D6DB"/>
<circle cx="151.5" cy="525.5" r="1.5" fill="#D2D6DB"/>
<circle cx="160.5" cy="525.5" r="1.5" fill="#D2D6DB"/>
<circle cx="169.5" cy="525.5" r="1.5" fill="#D2D6DB"/>
<circle cx="178.5" cy="525.5" r="1.5" fill="#D2D6DB"/>
<circle cx="187.5" cy="525.5" r="1.5" fill="#D2D6DB"/>
<circle cx="7.5" cy="534.5" r="1.5" fill="#D2D6DB"/>
<circle cx="16.5" cy="534.5" r="1.5" fill="#D2D6DB"/>
<circle cx="25.5" cy="534.5" r="1.5" fill="#D2D6DB"/>
<circle cx="34.5" cy="534.5" r="1.5" fill="#D2D6DB"/>
<circle cx="43.5" cy="534.5" r="1.5" fill="#D2D6DB"/>
<circle cx="52.5" cy="534.5" r="1.5" fill="#D2D6DB"/>
<circle cx="61.5" cy="534.5" r="1.5" fill="#D2D6DB"/>
<circle cx="70.5" cy="534.5" r="1.5" fill="#D2D6DB"/>
<circle cx="79.5" cy="534.5" r="1.5" fill="#D2D6DB"/>
<circle cx="88.5" cy="534.5" r="1.5" fill="#D2D6DB"/>
<circle cx="97.5" cy="534.5" r="1.5" fill="#D2D6DB"/>
<circle cx="106.5" cy="534.5" r="1.5" fill="#D2D6DB"/>
<circle cx="115.5" cy="534.5" r="1.5" fill="#D2D6DB"/>
<circle cx="124.5" cy="534.5" r="1.5" fill="#D2D6DB"/>
<circle cx="133.5" cy="534.5" r="1.5" fill="#D2D6DB"/>
<circle cx="142.5" cy="534.5" r="1.5" fill="#D2D6DB"/>
<circle cx="151.5" cy="534.5" r="1.5" fill="#D2D6DB"/>
<circle cx="160.5" cy="534.5" r="1.5" fill="#D2D6DB"/>
<circle cx="169.5" cy="534.5" r="1.5" fill="#D2D6DB"/>
<circle cx="178.5" cy="534.5" r="1.5" fill="#D2D6DB"/>
<circle cx="187.5" cy="534.5" r="1.5" fill="#D2D6DB"/>
<circle cx="7.5" cy="543.5" r="1.5" fill="#D2D6DB"/>
<circle cx="16.5" cy="543.5" r="1.5" fill="#D2D6DB"/>
<circle cx="25.5" cy="543.5" r="1.5" fill="#D2D6DB"/>
<circle cx="34.5" cy="543.5" r="1.5" fill="#D2D6DB"/>
<circle cx="43.5" cy="543.5" r="1.5" fill="#D2D6DB"/>
<circle cx="52.5" cy="543.5" r="1.5" fill="#D2D6DB"/>
<circle cx="61.5" cy="543.5" r="1.5" fill="#D2D6DB"/>
<circle cx="70.5" cy="543.5" r="1.5" fill="#D2D6DB"/>
<circle cx="79.5" cy="543.5" r="1.5" fill="#D2D6DB"/>
<circle cx="88.5" cy="543.5" r="1.5" fill="#D2D6DB"/>
<circle cx="97.5" cy="543.5" r="1.5" fill="#D2D6DB"/>
<circle cx="106.5" cy="543.5" r="1.5" fill="#D2D6DB"/>
<circle cx="115.5" cy="543.5" r="1.5" fill="#D2D6DB"/>
<circle cx="124.5" cy="543.5" r="1.5" fill="#D2D6DB"/>
<circle cx="133.5" cy="543.5" r="1.5" fill="#D2D6DB"/>
<circle cx="142.5" cy="543.5" r="1.5" fill="#D2D6DB"/>
<circle cx="151.5" cy="543.5" r="1.5" fill="#D2D6DB"/>
<circle cx="160.5" cy="543.5" r="1.5" fill="#D2D6DB"/>
<circle cx="169.5" cy="543.5" r="1.5" fill="#D2D6DB"/>
<circle cx="178.5" cy="543.5" r="1.5" fill="#D2D6DB"/>
<circle cx="187.5" cy="543.5" r="1.5" fill="#D2D6DB"/>
<circle cx="7.5" cy="552.5" r="1.5" fill="#D2D6DB"/>
<circle cx="16.5" cy="552.5" r="1.5" fill="#D2D6DB"/>
<circle cx="25.5" cy="552.5" r="1.5" fill="#D2D6DB"/>
<circle cx="34.5" cy="552.5" r="1.5" fill="#D2D6DB"/>
<circle cx="43.5" cy="552.5" r="1.5" fill="#D2D6DB"/>
<circle cx="52.5" cy="552.5" r="1.5" fill="#D2D6DB"/>
<circle cx="61.5" cy="552.5" r="1.5" fill="#D2D6DB"/>
<circle cx="70.5" cy="552.5" r="1.5" fill="#D2D6DB"/>
<circle cx="79.5" cy="552.5" r="1.5" fill="#D2D6DB"/>
<circle cx="88.5" cy="552.5" r="1.5" fill="#D2D6DB"/>
<circle cx="97.5" cy="552.5" r="1.5" fill="#D2D6DB"/>
<circle cx="106.5" cy="552.5" r="1.5" fill="#D2D6DB"/>
<circle cx="115.5" cy="552.5" r="1.5" fill="#D2D6DB"/>
<circle cx="124.5" cy="552.5" r="1.5" fill="#D2D6DB"/>
<circle cx="133.5" cy="552.5" r="1.5" fill="#D2D6DB"/>
<circle cx="142.5" cy="552.5" r="1.5" fill="#D2D6DB"/>
<circle cx="151.5" cy="552.5" r="1.5" fill="#D2D6DB"/>
<circle cx="160.5" cy="552.5" r="1.5" fill="#D2D6DB"/>
<circle cx="169.5" cy="552.5" r="1.5" fill="#D2D6DB"/>
<circle cx="178.5" cy="552.5" r="1.5" fill="#D2D6DB"/>
<circle cx="187.5" cy="552.5" r="1.5" fill="#D2D6DB"/>
<circle cx="7.5" cy="561.5" r="1.5" fill="#D2D6DB"/>
<circle cx="16.5" cy="561.5" r="1.5" fill="#D2D6DB"/>
<circle cx="25.5" cy="561.5" r="1.5" fill="#D2D6DB"/>
<circle cx="34.5" cy="561.5" r="1.5" fill="#D2D6DB"/>
<circle cx="43.5" cy="561.5" r="1.5" fill="#D2D6DB"/>
<circle cx="52.5" cy="561.5" r="1.5" fill="#D2D6DB"/>
<circle cx="61.5" cy="561.5" r="1.5" fill="#D2D6DB"/>
<circle cx="70.5" cy="561.5" r="1.5" fill="#D2D6DB"/>
<circle cx="79.5" cy="561.5" r="1.5" fill="#D2D6DB"/>
<circle cx="88.5" cy="561.5" r="1.5" fill="#D2D6DB"/>
<circle cx="97.5" cy="561.5" r="1.5" fill="#D2D6DB"/>
<circle cx="106.5" cy="561.5" r="1.5" fill="#D2D6DB"/>
<circle cx="115.5" cy="561.5" r="1.5" fill="#D2D6DB"/>
<circle cx="124.5" cy="561.5" r="1.5" fill="#D2D6DB"/>
<circle cx="133.5" cy="561.5" r="1.5" fill="#D2D6DB"/>
<circle cx="142.5" cy="561.5" r="1.5" fill="#D2D6DB"/>
<circle cx="151.5" cy="561.5" r="1.5" fill="#D2D6DB"/>
<circle cx="160.5" cy="561.5" r="1.5" fill="#D2D6DB"/>
<circle cx="169.5" cy="561.5" r="1.5" fill="#D2D6DB"/>
<circle cx="178.5" cy="561.5" r="1.5" fill="#D2D6DB"/>
<circle cx="187.5" cy="561.5" r="1.5" fill="#D2D6DB"/>
<circle cx="7.5" cy="570.5" r="1.5" fill="#D2D6DB"/>
<circle cx="16.5" cy="570.5" r="1.5" fill="#D2D6DB"/>
<circle cx="25.5" cy="570.5" r="1.5" fill="#D2D6DB"/>
<circle cx="34.5" cy="570.5" r="1.5" fill="#D2D6DB"/>
<circle cx="43.5" cy="570.5" r="1.5" fill="#D2D6DB"/>
<circle cx="52.5" cy="570.5" r="1.5" fill="#D2D6DB"/>
<circle cx="61.5" cy="570.5" r="1.5" fill="#D2D6DB"/>
<circle cx="70.5" cy="570.5" r="1.5" fill="#D2D6DB"/>
<circle cx="79.5" cy="570.5" r="1.5" fill="#D2D6DB"/>
<circle cx="88.5" cy="570.5" r="1.5" fill="#D2D6DB"/>
<circle cx="97.5" cy="570.5" r="1.5" fill="#D2D6DB"/>
<circle cx="106.5" cy="570.5" r="1.5" fill="#D2D6DB"/>
<circle cx="115.5" cy="570.5" r="1.5" fill="#D2D6DB"/>
<circle cx="124.5" cy="570.5" r="1.5" fill="#D2D6DB"/>
<circle cx="133.5" cy="570.5" r="1.5" fill="#D2D6DB"/>
<circle cx="142.5" cy="570.5" r="1.5" fill="#D2D6DB"/>
<circle cx="151.5" cy="570.5" r="1.5" fill="#D2D6DB"/>
<circle cx="160.5" cy="570.5" r="1.5" fill="#D2D6DB"/>
<circle cx="169.5" cy="570.5" r="1.5" fill="#D2D6DB"/>
<circle cx="178.5" cy="570.5" r="1.5" fill="#D2D6DB"/>
<circle cx="187.5" cy="570.5" r="1.5" fill="#D2D6DB"/>
<circle cx="7.5" cy="579.5" r="1.5" fill="#D2D6DB"/>
<circle cx="16.5" cy="579.5" r="1.5" fill="#D2D6DB"/>
<circle cx="25.5" cy="579.5" r="1.5" fill="#D2D6DB"/>
<circle cx="34.5" cy="579.5" r="1.5" fill="#D2D6DB"/>
<circle cx="43.5" cy="579.5" r="1.5" fill="#D2D6DB"/>
<circle cx="52.5" cy="579.5" r="1.5" fill="#D2D6DB"/>
<circle cx="61.5" cy="579.5" r="1.5" fill="#D2D6DB"/>
<circle cx="70.5" cy="579.5" r="1.5" fill="#D2D6DB"/>
<circle cx="79.5" cy="579.5" r="1.5" fill="#D2D6DB"/>
<circle cx="88.5" cy="579.5" r="1.5" fill="#D2D6DB"/>
<circle cx="97.5" cy="579.5" r="1.5" fill="#D2D6DB"/>
<circle cx="106.5" cy="579.5" r="1.5" fill="#D2D6DB"/>
<circle cx="115.5" cy="579.5" r="1.5" fill="#D2D6DB"/>
<circle cx="124.5" cy="579.5" r="1.5" fill="#D2D6DB"/>
<circle cx="133.5" cy="579.5" r="1.5" fill="#D2D6DB"/>
<circle cx="142.5" cy="579.5" r="1.5" fill="#D2D6DB"/>
<circle cx="151.5" cy="579.5" r="1.5" fill="#D2D6DB"/>
<circle cx="160.5" cy="579.5" r="1.5" fill="#D2D6DB"/>
<circle cx="169.5" cy="579.5" r="1.5" fill="#D2D6DB"/>
<circle cx="178.5" cy="579.5" r="1.5" fill="#D2D6DB"/>
<circle cx="187.5" cy="579.5" r="1.5" fill="#D2D6DB"/>
<circle cx="7.5" cy="588.5" r="1.5" fill="#D2D6DB"/>
<circle cx="16.5" cy="588.5" r="1.5" fill="#D2D6DB"/>
<circle cx="25.5" cy="588.5" r="1.5" fill="#D2D6DB"/>
<circle cx="34.5" cy="588.5" r="1.5" fill="#D2D6DB"/>
<circle cx="43.5" cy="588.5" r="1.5" fill="#D2D6DB"/>
<circle cx="52.5" cy="588.5" r="1.5" fill="#D2D6DB"/>
<circle cx="61.5" cy="588.5" r="1.5" fill="#D2D6DB"/>
<circle cx="70.5" cy="588.5" r="1.5" fill="#D2D6DB"/>
<circle cx="79.5" cy="588.5" r="1.5" fill="#D2D6DB"/>
<circle cx="88.5" cy="588.5" r="1.5" fill="#D2D6DB"/>
<circle cx="97.5" cy="588.5" r="1.5" fill="#D2D6DB"/>
<circle cx="106.5" cy="588.5" r="1.5" fill="#D2D6DB"/>
<circle cx="115.5" cy="588.5" r="1.5" fill="#D2D6DB"/>
<circle cx="124.5" cy="588.5" r="1.5" fill="#D2D6DB"/>
<circle cx="133.5" cy="588.5" r="1.5" fill="#D2D6DB"/>
<circle cx="142.5" cy="588.5" r="1.5" fill="#D2D6DB"/>
<circle cx="151.5" cy="588.5" r="1.5" fill="#D2D6DB"/>
<circle cx="160.5" cy="588.5" r="1.5" fill="#D2D6DB"/>
<circle cx="169.5" cy="588.5" r="1.5" fill="#D2D6DB"/>
<circle cx="178.5" cy="588.5" r="1.5" fill="#D2D6DB"/>
<circle cx="187.5" cy="588.5" r="1.5" fill="#D2D6DB"/>
<circle cx="7.5" cy="597.5" r="1.5" fill="#D2D6DB"/>
<circle cx="16.5" cy="597.5" r="1.5" fill="#D2D6DB"/>
<circle cx="25.5" cy="597.5" r="1.5" fill="#D2D6DB"/>
<circle cx="34.5" cy="597.5" r="1.5" fill="#D2D6DB"/>
<circle cx="43.5" cy="597.5" r="1.5" fill="#D2D6DB"/>
<circle cx="52.5" cy="597.5" r="1.5" fill="#D2D6DB"/>
<circle cx="61.5" cy="597.5" r="1.5" fill="#D2D6DB"/>
<circle cx="70.5" cy="597.5" r="1.5" fill="#D2D6DB"/>
<circle cx="79.5" cy="597.5" r="1.5" fill="#D2D6DB"/>
<circle cx="88.5" cy="597.5" r="1.5" fill="#D2D6DB"/>
<circle cx="97.5" cy="597.5" r="1.5" fill="#D2D6DB"/>
<circle cx="106.5" cy="597.5" r="1.5" fill="#D2D6DB"/>
<circle cx="115.5" cy="597.5" r="1.5" fill="#D2D6DB"/>
<circle cx="124.5" cy="597.5" r="1.5" fill="#D2D6DB"/>
<circle cx="133.5" cy="597.5" r="1.5" fill="#D2D6DB"/>
<circle cx="142.5" cy="597.5" r="1.5" fill="#D2D6DB"/>
<circle cx="151.5" cy="597.5" r="1.5" fill="#D2D6DB"/>
<circle cx="160.5" cy="597.5" r="1.5" fill="#D2D6DB"/>
<circle cx="169.5" cy="597.5" r="1.5" fill="#D2D6DB"/>
<circle cx="178.5" cy="597.5" r="1.5" fill="#D2D6DB"/>
<circle cx="187.5" cy="597.5" r="1.5" fill="#D2D6DB"/>
<circle cx="7.5" cy="606.5" r="1.5" fill="#D2D6DB"/>
<circle cx="16.5" cy="606.5" r="1.5" fill="#D2D6DB"/>
<circle cx="25.5" cy="606.5" r="1.5" fill="#D2D6DB"/>
<circle cx="34.5" cy="606.5" r="1.5" fill="#D2D6DB"/>
<circle cx="43.5" cy="606.5" r="1.5" fill="#D2D6DB"/>
<circle cx="52.5" cy="606.5" r="1.5" fill="#D2D6DB"/>
<circle cx="61.5" cy="606.5" r="1.5" fill="#D2D6DB"/>
<circle cx="70.5" cy="606.5" r="1.5" fill="#D2D6DB"/>
<circle cx="79.5" cy="606.5" r="1.5" fill="#D2D6DB"/>
<circle cx="88.5" cy="606.5" r="1.5" fill="#D2D6DB"/>
<circle cx="97.5" cy="606.5" r="1.5" fill="#D2D6DB"/>
<circle cx="106.5" cy="606.5" r="1.5" fill="#D2D6DB"/>
<circle cx="115.5" cy="606.5" r="1.5" fill="#D2D6DB"/>
<circle cx="124.5" cy="606.5" r="1.5" fill="#D2D6DB"/>
<circle cx="133.5" cy="606.5" r="1.5" fill="#D2D6DB"/>
<circle cx="142.5" cy="606.5" r="1.5" fill="#D2D6DB"/>
<circle cx="151.5" cy="606.5" r="1.5" fill="#D2D6DB"/>
<circle cx="160.5" cy="606.5" r="1.5" fill="#D2D6DB"/>
<circle cx="169.5" cy="606.5" r="1.5" fill="#D2D6DB"/>
<circle cx="178.5" cy="606.5" r="1.5" fill="#D2D6DB"/>
<circle cx="187.5" cy="606.5" r="1.5" fill="#D2D6DB"/>
<circle cx="7.5" cy="615.5" r="1.5" fill="#D2D6DB"/>
<circle cx="16.5" cy="615.5" r="1.5" fill="#D2D6DB"/>
<circle cx="25.5" cy="615.5" r="1.5" fill="#D2D6DB"/>
<circle cx="34.5" cy="615.5" r="1.5" fill="#D2D6DB"/>
<circle cx="43.5" cy="615.5" r="1.5" fill="#D2D6DB"/>
<circle cx="52.5" cy="615.5" r="1.5" fill="#D2D6DB"/>
<circle cx="61.5" cy="615.5" r="1.5" fill="#D2D6DB"/>
<circle cx="70.5" cy="615.5" r="1.5" fill="#D2D6DB"/>
<circle cx="79.5" cy="615.5" r="1.5" fill="#D2D6DB"/>
<circle cx="88.5" cy="615.5" r="1.5" fill="#D2D6DB"/>
<circle cx="97.5" cy="615.5" r="1.5" fill="#D2D6DB"/>
<circle cx="106.5" cy="615.5" r="1.5" fill="#D2D6DB"/>
<circle cx="115.5" cy="615.5" r="1.5" fill="#D2D6DB"/>
<circle cx="124.5" cy="615.5" r="1.5" fill="#D2D6DB"/>
<circle cx="133.5" cy="615.5" r="1.5" fill="#D2D6DB"/>
<circle cx="142.5" cy="615.5" r="1.5" fill="#D2D6DB"/>
<circle cx="151.5" cy="615.5" r="1.5" fill="#D2D6DB"/>
<circle cx="160.5" cy="615.5" r="1.5" fill="#D2D6DB"/>
<circle cx="169.5" cy="615.5" r="1.5" fill="#D2D6DB"/>
<circle cx="178.5" cy="615.5" r="1.5" fill="#D2D6DB"/>
<circle cx="187.5" cy="615.5" r="1.5" fill="#D2D6DB"/>
<circle cx="7.5" cy="624.5" r="1.5" fill="#D2D6DB"/>
<circle cx="16.5" cy="624.5" r="1.5" fill="#D2D6DB"/>
<circle cx="25.5" cy="624.5" r="1.5" fill="#D2D6DB"/>
<circle cx="34.5" cy="624.5" r="1.5" fill="#D2D6DB"/>
<circle cx="43.5" cy="624.5" r="1.5" fill="#D2D6DB"/>
<circle cx="52.5" cy="624.5" r="1.5" fill="#D2D6DB"/>
<circle cx="61.5" cy="624.5" r="1.5" fill="#D2D6DB"/>
<circle cx="70.5" cy="624.5" r="1.5" fill="#D2D6DB"/>
<circle cx="79.5" cy="624.5" r="1.5" fill="#D2D6DB"/>
<circle cx="88.5" cy="624.5" r="1.5" fill="#D2D6DB"/>
<circle cx="97.5" cy="624.5" r="1.5" fill="#D2D6DB"/>
<circle cx="106.5" cy="624.5" r="1.5" fill="#D2D6DB"/>
<circle cx="115.5" cy="624.5" r="1.5" fill="#D2D6DB"/>
<circle cx="124.5" cy="624.5" r="1.5" fill="#D2D6DB"/>
<circle cx="133.5" cy="624.5" r="1.5" fill="#D2D6DB"/>
<circle cx="142.5" cy="624.5" r="1.5" fill="#D2D6DB"/>
<circle cx="151.5" cy="624.5" r="1.5" fill="#D2D6DB"/>
<circle cx="160.5" cy="624.5" r="1.5" fill="#D2D6DB"/>
<circle cx="169.5" cy="624.5" r="1.5" fill="#D2D6DB"/>
<circle cx="178.5" cy="624.5" r="1.5" fill="#D2D6DB"/>
<circle cx="187.5" cy="624.5" r="1.5" fill="#D2D6DB"/>
<circle cx="7.5" cy="633.5" r="1.5" fill="#D2D6DB"/>
<circle cx="16.5" cy="633.5" r="1.5" fill="#D2D6DB"/>
<circle cx="25.5" cy="633.5" r="1.5" fill="#D2D6DB"/>
<circle cx="34.5" cy="633.5" r="1.5" fill="#D2D6DB"/>
<circle cx="43.5" cy="633.5" r="1.5" fill="#D2D6DB"/>
<circle cx="52.5" cy="633.5" r="1.5" fill="#D2D6DB"/>
<circle cx="61.5" cy="633.5" r="1.5" fill="#D2D6DB"/>
<circle cx="70.5" cy="633.5" r="1.5" fill="#D2D6DB"/>
<circle cx="79.5" cy="633.5" r="1.5" fill="#D2D6DB"/>
<circle cx="88.5" cy="633.5" r="1.5" fill="#D2D6DB"/>
<circle cx="97.5" cy="633.5" r="1.5" fill="#D2D6DB"/>
<circle cx="106.5" cy="633.5" r="1.5" fill="#D2D6DB"/>
<circle cx="115.5" cy="633.5" r="1.5" fill="#D2D6DB"/>
<circle cx="124.5" cy="633.5" r="1.5" fill="#D2D6DB"/>
<circle cx="133.5" cy="633.5" r="1.5" fill="#D2D6DB"/>
<circle cx="142.5" cy="633.5" r="1.5" fill="#D2D6DB"/>
<circle cx="151.5" cy="633.5" r="1.5" fill="#D2D6DB"/>
<circle cx="160.5" cy="633.5" r="1.5" fill="#D2D6DB"/>
<circle cx="169.5" cy="633.5" r="1.5" fill="#D2D6DB"/>
<circle cx="178.5" cy="633.5" r="1.5" fill="#D2D6DB"/>
<circle cx="187.5" cy="633.5" r="1.5" fill="#D2D6DB"/>
<circle cx="7.5" cy="642.5" r="1.5" fill="#D2D6DB"/>
<circle cx="16.5" cy="642.5" r="1.5" fill="#D2D6DB"/>
<circle cx="25.5" cy="642.5" r="1.5" fill="#D2D6DB"/>
<circle cx="34.5" cy="642.5" r="1.5" fill="#D2D6DB"/>
<circle cx="43.5" cy="642.5" r="1.5" fill="#D2D6DB"/>
<circle cx="52.5" cy="642.5" r="1.5" fill="#D2D6DB"/>
<circle cx="61.5" cy="642.5" r="1.5" fill="#D2D6DB"/>
<circle cx="70.5" cy="642.5" r="1.5" fill="#D2D6DB"/>
<circle cx="79.5" cy="642.5" r="1.5" fill="#D2D6DB"/>
<circle cx="88.5" cy="642.5" r="1.5" fill="#D2D6DB"/>
<circle cx="97.5" cy="642.5" r="1.5" fill="#D2D6DB"/>
<circle cx="106.5" cy="642.5" r="1.5" fill="#D2D6DB"/>
<circle cx="115.5" cy="642.5" r="1.5" fill="#D2D6DB"/>
<circle cx="124.5" cy="642.5" r="1.5" fill="#D2D6DB"/>
<circle cx="133.5" cy="642.5" r="1.5" fill="#D2D6DB"/>
<circle cx="142.5" cy="642.5" r="1.5" fill="#D2D6DB"/>
<circle cx="151.5" cy="642.5" r="1.5" fill="#D2D6DB"/>
<circle cx="160.5" cy="642.5" r="1.5" fill="#D2D6DB"/>
<circle cx="169.5" cy="642.5" r="1.5" fill="#D2D6DB"/>
<circle cx="178.5" cy="642.5" r="1.5" fill="#D2D6DB"/>
<circle cx="187.5" cy="642.5" r="1.5" fill="#D2D6DB"/>
<circle cx="7.5" cy="651.5" r="1.5" fill="#D2D6DB"/>
<circle cx="16.5" cy="651.5" r="1.5" fill="#D2D6DB"/>
<circle cx="25.5" cy="651.5" r="1.5" fill="#D2D6DB"/>
<circle cx="34.5" cy="651.5" r="1.5" fill="#D2D6DB"/>
<circle cx="43.5" cy="651.5" r="1.5" fill="#D2D6DB"/>
<circle cx="52.5" cy="651.5" r="1.5" fill="#D2D6DB"/>
<circle cx="61.5" cy="651.5" r="1.5" fill="#D2D6DB"/>
<circle cx="70.5" cy="651.5" r="1.5" fill="#D2D6DB"/>
<circle cx="79.5" cy="651.5" r="1.5" fill="#D2D6DB"/>
<circle cx="88.5" cy="651.5" r="1.5" fill="#D2D6DB"/>
<circle cx="97.5" cy="651.5" r="1.5" fill="#D2D6DB"/>
<circle cx="106.5" cy="651.5" r="1.5" fill="#D2D6DB"/>
<circle cx="115.5" cy="651.5" r="1.5" fill="#D2D6DB"/>
<circle cx="124.5" cy="651.5" r="1.5" fill="#D2D6DB"/>
<circle cx="133.5" cy="651.5" r="1.5" fill="#D2D6DB"/>
<circle cx="142.5" cy="651.5" r="1.5" fill="#D2D6DB"/>
<circle cx="151.5" cy="651.5" r="1.5" fill="#D2D6DB"/>
<circle cx="160.5" cy="651.5" r="1.5" fill="#D2D6DB"/>
<circle cx="169.5" cy="651.5" r="1.5" fill="#D2D6DB"/>
<circle cx="178.5" cy="651.5" r="1.5" fill="#D2D6DB"/>
<circle cx="187.5" cy="651.5" r="1.5" fill="#D2D6DB"/>
<circle cx="7.5" cy="660.5" r="1.5" fill="#D2D6DB"/>
<circle cx="16.5" cy="660.5" r="1.5" fill="#D2D6DB"/>
<circle cx="25.5" cy="660.5" r="1.5" fill="#D2D6DB"/>
<circle cx="34.5" cy="660.5" r="1.5" fill="#D2D6DB"/>
<circle cx="43.5" cy="660.5" r="1.5" fill="#D2D6DB"/>
<circle cx="52.5" cy="660.5" r="1.5" fill="#D2D6DB"/>
<circle cx="61.5" cy="660.5" r="1.5" fill="#D2D6DB"/>
<circle cx="70.5" cy="660.5" r="1.5" fill="#D2D6DB"/>
<circle cx="79.5" cy="660.5" r="1.5" fill="#D2D6DB"/>
<circle cx="88.5" cy="660.5" r="1.5" fill="#D2D6DB"/>
<circle cx="97.5" cy="660.5" r="1.5" fill="#D2D6DB"/>
<circle cx="106.5" cy="660.5" r="1.5" fill="#D2D6DB"/>
<circle cx="115.5" cy="660.5" r="1.5" fill="#D2D6DB"/>
<circle cx="124.5" cy="660.5" r="1.5" fill="#D2D6DB"/>
<circle cx="133.5" cy="660.5" r="1.5" fill="#D2D6DB"/>
<circle cx="142.5" cy="660.5" r="1.5" fill="#D2D6DB"/>
<circle cx="151.5" cy="660.5" r="1.5" fill="#D2D6DB"/>
<circle cx="160.5" cy="660.5" r="1.5" fill="#D2D6DB"/>
<circle cx="169.5" cy="660.5" r="1.5" fill="#D2D6DB"/>
<circle cx="178.5" cy="660.5" r="1.5" fill="#D2D6DB"/>
<circle cx="187.5" cy="660.5" r="1.5" fill="#D2D6DB"/>
<circle cx="7.5" cy="669.5" r="1.5" fill="#D2D6DB"/>
<circle cx="16.5" cy="669.5" r="1.5" fill="#D2D6DB"/>
<circle cx="25.5" cy="669.5" r="1.5" fill="#D2D6DB"/>
<circle cx="34.5" cy="669.5" r="1.5" fill="#D2D6DB"/>
<circle cx="43.5" cy="669.5" r="1.5" fill="#D2D6DB"/>
<circle cx="52.5" cy="669.5" r="1.5" fill="#D2D6DB"/>
<circle cx="61.5" cy="669.5" r="1.5" fill="#D2D6DB"/>
<circle cx="70.5" cy="669.5" r="1.5" fill="#D2D6DB"/>
<circle cx="79.5" cy="669.5" r="1.5" fill="#D2D6DB"/>
<circle cx="88.5" cy="669.5" r="1.5" fill="#D2D6DB"/>
<circle cx="97.5" cy="669.5" r="1.5" fill="#D2D6DB"/>
<circle cx="106.5" cy="669.5" r="1.5" fill="#D2D6DB"/>
<circle cx="115.5" cy="669.5" r="1.5" fill="#D2D6DB"/>
<circle cx="124.5" cy="669.5" r="1.5" fill="#D2D6DB"/>
<circle cx="133.5" cy="669.5" r="1.5" fill="#D2D6DB"/>
<circle cx="142.5" cy="669.5" r="1.5" fill="#D2D6DB"/>
<circle cx="151.5" cy="669.5" r="1.5" fill="#D2D6DB"/>
<circle cx="160.5" cy="669.5" r="1.5" fill="#D2D6DB"/>
<circle cx="169.5" cy="669.5" r="1.5" fill="#D2D6DB"/>
<circle cx="178.5" cy="669.5" r="1.5" fill="#D2D6DB"/>
<circle cx="187.5" cy="669.5" r="1.5" fill="#D2D6DB"/>
<circle cx="7.5" cy="678.5" r="1.5" fill="#D2D6DB"/>
<circle cx="16.5" cy="678.5" r="1.5" fill="#D2D6DB"/>
<circle cx="25.5" cy="678.5" r="1.5" fill="#D2D6DB"/>
<circle cx="34.5" cy="678.5" r="1.5" fill="#D2D6DB"/>
<circle cx="43.5" cy="678.5" r="1.5" fill="#D2D6DB"/>
<circle cx="52.5" cy="678.5" r="1.5" fill="#D2D6DB"/>
<circle cx="61.5" cy="678.5" r="1.5" fill="#D2D6DB"/>
<circle cx="70.5" cy="678.5" r="1.5" fill="#D2D6DB"/>
<circle cx="79.5" cy="678.5" r="1.5" fill="#D2D6DB"/>
<circle cx="88.5" cy="678.5" r="1.5" fill="#D2D6DB"/>
<circle cx="97.5" cy="678.5" r="1.5" fill="#D2D6DB"/>
<circle cx="106.5" cy="678.5" r="1.5" fill="#D2D6DB"/>
<circle cx="115.5" cy="678.5" r="1.5" fill="#D2D6DB"/>
<circle cx="124.5" cy="678.5" r="1.5" fill="#D2D6DB"/>
<circle cx="133.5" cy="678.5" r="1.5" fill="#D2D6DB"/>
<circle cx="142.5" cy="678.5" r="1.5" fill="#D2D6DB"/>
<circle cx="151.5" cy="678.5" r="1.5" fill="#D2D6DB"/>
<circle cx="160.5" cy="678.5" r="1.5" fill="#D2D6DB"/>
<circle cx="169.5" cy="678.5" r="1.5" fill="#D2D6DB"/>
<circle cx="178.5" cy="678.5" r="1.5" fill="#D2D6DB"/>
<circle cx="187.5" cy="678.5" r="1.5" fill="#D2D6DB"/>
<circle cx="7.5" cy="687.5" r="1.5" fill="#D2D6DB"/>
<circle cx="16.5" cy="687.5" r="1.5" fill="#D2D6DB"/>
<circle cx="25.5" cy="687.5" r="1.5" fill="#D2D6DB"/>
<circle cx="34.5" cy="687.5" r="1.5" fill="#D2D6DB"/>
<circle cx="43.5" cy="687.5" r="1.5" fill="#D2D6DB"/>
<circle cx="52.5" cy="687.5" r="1.5" fill="#D2D6DB"/>
<circle cx="61.5" cy="687.5" r="1.5" fill="#D2D6DB"/>
<circle cx="70.5" cy="687.5" r="1.5" fill="#D2D6DB"/>
<circle cx="79.5" cy="687.5" r="1.5" fill="#D2D6DB"/>
<circle cx="88.5" cy="687.5" r="1.5" fill="#D2D6DB"/>
<circle cx="97.5" cy="687.5" r="1.5" fill="#D2D6DB"/>
<circle cx="106.5" cy="687.5" r="1.5" fill="#D2D6DB"/>
<circle cx="115.5" cy="687.5" r="1.5" fill="#D2D6DB"/>
<circle cx="124.5" cy="687.5" r="1.5" fill="#D2D6DB"/>
<circle cx="133.5" cy="687.5" r="1.5" fill="#D2D6DB"/>
<circle cx="142.5" cy="687.5" r="1.5" fill="#D2D6DB"/>
<circle cx="151.5" cy="687.5" r="1.5" fill="#D2D6DB"/>
<circle cx="160.5" cy="687.5" r="1.5" fill="#D2D6DB"/>
<circle cx="169.5" cy="687.5" r="1.5" fill="#D2D6DB"/>
<circle cx="178.5" cy="687.5" r="1.5" fill="#D2D6DB"/>
<circle cx="187.5" cy="687.5" r="1.5" fill="#D2D6DB"/>
<circle cx="7.5" cy="696.5" r="1.5" fill="#D2D6DB"/>
<circle cx="16.5" cy="696.5" r="1.5" fill="#D2D6DB"/>
<circle cx="25.5" cy="696.5" r="1.5" fill="#D2D6DB"/>
<circle cx="34.5" cy="696.5" r="1.5" fill="#D2D6DB"/>
<circle cx="43.5" cy="696.5" r="1.5" fill="#D2D6DB"/>
<circle cx="52.5" cy="696.5" r="1.5" fill="#D2D6DB"/>
<circle cx="61.5" cy="696.5" r="1.5" fill="#D2D6DB"/>
<circle cx="70.5" cy="696.5" r="1.5" fill="#D2D6DB"/>
<circle cx="79.5" cy="696.5" r="1.5" fill="#D2D6DB"/>
<circle cx="88.5" cy="696.5" r="1.5" fill="#D2D6DB"/>
<circle cx="97.5" cy="696.5" r="1.5" fill="#D2D6DB"/>
<circle cx="106.5" cy="696.5" r="1.5" fill="#D2D6DB"/>
<circle cx="115.5" cy="696.5" r="1.5" fill="#D2D6DB"/>
<circle cx="124.5" cy="696.5" r="1.5" fill="#D2D6DB"/>
<circle cx="133.5" cy="696.5" r="1.5" fill="#D2D6DB"/>
<circle cx="142.5" cy="696.5" r="1.5" fill="#D2D6DB"/>
<circle cx="151.5" cy="696.5" r="1.5" fill="#D2D6DB"/>
<circle cx="160.5" cy="696.5" r="1.5" fill="#D2D6DB"/>
<circle cx="169.5" cy="696.5" r="1.5" fill="#D2D6DB"/>
<circle cx="178.5" cy="696.5" r="1.5" fill="#D2D6DB"/>
<circle cx="187.5" cy="696.5" r="1.5" fill="#D2D6DB"/>
<circle cx="7.5" cy="705.5" r="1.5" fill="#D2D6DB"/>
<circle cx="16.5" cy="705.5" r="1.5" fill="#D2D6DB"/>
<circle cx="25.5" cy="705.5" r="1.5" fill="#D2D6DB"/>
<circle cx="34.5" cy="705.5" r="1.5" fill="#D2D6DB"/>
<circle cx="43.5" cy="705.5" r="1.5" fill="#D2D6DB"/>
<circle cx="52.5" cy="705.5" r="1.5" fill="#D2D6DB"/>
<circle cx="61.5" cy="705.5" r="1.5" fill="#D2D6DB"/>
<circle cx="70.5" cy="705.5" r="1.5" fill="#D2D6DB"/>
<circle cx="79.5" cy="705.5" r="1.5" fill="#D2D6DB"/>
<circle cx="88.5" cy="705.5" r="1.5" fill="#D2D6DB"/>
<circle cx="97.5" cy="705.5" r="1.5" fill="#D2D6DB"/>
<circle cx="106.5" cy="705.5" r="1.5" fill="#D2D6DB"/>
<circle cx="115.5" cy="705.5" r="1.5" fill="#D2D6DB"/>
<circle cx="124.5" cy="705.5" r="1.5" fill="#D2D6DB"/>
<circle cx="133.5" cy="705.5" r="1.5" fill="#D2D6DB"/>
<circle cx="142.5" cy="705.5" r="1.5" fill="#D2D6DB"/>
<circle cx="151.5" cy="705.5" r="1.5" fill="#D2D6DB"/>
<circle cx="160.5" cy="705.5" r="1.5" fill="#D2D6DB"/>
<circle cx="169.5" cy="705.5" r="1.5" fill="#D2D6DB"/>
<circle cx="178.5" cy="705.5" r="1.5" fill="#D2D6DB"/>
<circle cx="187.5" cy="705.5" r="1.5" fill="#D2D6DB"/>
</g>
<defs>
<clipPath id="clip0_7_9">
<rect width="199" height="188" fill="white" transform="translate(-12 524)"/>
</clipPath>
</defs>
</svg>
